<svg xmlns="http://www.w3.org/2000/svg" viewBox="0 0 147 64" fill="none">
<path d="M0 64H63.8744V0H0V64Z" fill="#E55A00"/>
<path fill-rule="evenodd" clip-rule="evenodd" d="M57.5182 0.00195312L45.5703 18.3326L45.5812 18.3245L63.8629 0.00195312H57.5182Z" fill="white"/>
<path fill-rule="evenodd" clip-rule="evenodd" d="M25.8096 43.8798C25.8096 44.445 26.2789 44.7273 27.4117 44.7273C28.5409 44.7273 29.0114 44.445 29.0114 43.8798V27.788C29.0114 23.5881 30.6583 21.8431 35.2287 21.8431H36.0768C36.7361 21.8431 36.9696 21.2757 36.9696 20.3776C36.9696 19.2939 36.358 19.0576 34.5682 19.0576C29.4808 19.0576 25.8096 21.3217 25.8096 27.5034V43.8798ZM40.1738 43.8798C40.1738 44.445 40.6443 44.7273 41.7753 44.7273C42.904 44.7273 43.3751 44.445 43.3751 43.8798V19.9073C43.3751 19.3404 42.904 19.0576 41.7753 19.0576C40.6443 19.0576 40.1738 19.3404 40.1738 19.9073V43.8798ZM49.1683 30.9961L58.258 20.9451C58.5886 20.5685 58.8215 20.2839 58.8215 20.0017C58.8215 19.4342 57.5982 18.8633 56.7983 18.8633C56.2325 18.8633 55.762 19.2939 55.3379 19.7648L45.3989 30.8075C44.9313 31.3261 44.8349 31.609 44.8349 31.8936C44.8349 32.1759 44.9313 32.4588 45.3989 32.9774L55.3379 44.0195C55.762 44.491 56.2325 44.9216 56.7983 44.9216C57.5982 44.9216 58.8215 44.3507 58.8215 43.7827C58.8215 43.501 58.5886 43.2187 58.258 42.8421L49.1683 32.7893C48.7448 32.3185 48.5096 32.0816 48.5096 31.8936C48.5096 31.7033 48.7448 31.4687 49.1683 30.9961Z" fill="white"/>
<path fill-rule="evenodd" clip-rule="evenodd" d="M22.2754 42.1606V32.9639C22.2754 32.3901 21.8054 32.1038 20.6756 32.1038C19.544 32.1038 19.0735 32.3901 19.0735 32.9639V40.6358C19.0735 41.8265 18.5559 42.3026 16.1539 42.3026C11.3024 42.3026 8.28869 38.5862 8.28869 32.2481C8.28869 25.6209 12.0081 21.8568 18.3677 21.8568H20.2033C20.8638 21.8568 21.0996 21.2853 21.0996 20.3815C21.0996 19.2845 20.4879 19.0459 18.6976 19.0459H17.9437C10.5507 19.0459 4.85156 23.1435 4.85156 32.2964C4.85156 41.0647 9.84258 44.9737 16.1057 44.9737C21.0996 44.9737 22.2754 43.5899 22.2754 42.1606Z" fill="white"/>
<path fill-rule="evenodd" clip-rule="evenodd" d="M31.9355 30.249C32.9024 30.249 33.6879 31.0332 33.6879 32.0043C33.6879 32.9736 32.9024 33.7607 31.9355 33.7607C30.9687 33.7607 30.1831 32.9736 30.1831 32.0043C30.1831 31.0332 30.9687 30.249 31.9355 30.249Z" fill="white"/>
<path fill-rule="evenodd" clip-rule="evenodd" d="M79.898 17.1386C79.4389 16.9517 79.0373 16.693 78.7073 16.3337C78.363 15.9744 78.1048 15.5431 77.9183 15.0401C77.7318 14.5226 77.6458 13.9477 77.6458 13.2865C77.6458 12.6685 77.7318 12.1079 77.9183 11.6048C78.0905 11.1018 78.3487 10.685 78.6786 10.3256C79.0086 9.98066 79.3959 9.70756 79.8693 9.52071C80.3427 9.33386 80.8591 9.23324 81.4473 9.23324C81.8346 9.23324 82.1789 9.26199 82.4658 9.31948C82.7527 9.39135 83.0109 9.46322 83.2261 9.54946C83.4413 9.6357 83.6134 9.73631 83.7712 9.82255C83.9147 9.92316 84.0438 10.0094 84.1729 10.0669C84.259 10.1244 84.345 10.1531 84.4167 10.1531C84.5459 10.1531 84.6463 10.0956 84.7323 9.96628L85.134 9.33386C84.9045 9.13263 84.675 8.96015 84.4167 8.78767C84.1585 8.62956 83.886 8.48583 83.5847 8.37084C83.2835 8.27023 82.9679 8.18399 82.6236 8.11212C82.265 8.05463 81.892 8.02588 81.4903 8.02588C80.687 8.02588 79.9554 8.15524 79.3098 8.41396C78.6643 8.65831 78.1048 9.01764 77.6458 9.47759C77.1867 9.95191 76.8424 10.4981 76.5986 11.1449C76.3547 11.7917 76.2256 12.5104 76.2256 13.3009C76.2256 14.0771 76.3547 14.7814 76.5986 15.4282C76.8568 16.075 77.2011 16.6355 77.6601 17.0955C78.1048 17.5554 78.6356 17.9148 79.2668 18.1735C79.8836 18.4322 80.5722 18.5616 81.3182 18.5616C81.7342 18.5616 82.1358 18.5328 82.4945 18.4897C82.8531 18.4466 83.1974 18.3747 83.513 18.2885C83.8286 18.1878 84.1298 18.0729 84.4167 17.9291C84.6893 17.7998 84.9619 17.6273 85.2201 17.4404V13.4878H82.0641V14.2783C82.0641 14.3502 82.0928 14.422 82.1502 14.4651C82.2076 14.5226 82.2793 14.5514 82.3654 14.5514H83.9577V16.8368C83.7712 16.923 83.5991 17.0092 83.4126 17.0811C83.2261 17.153 83.0396 17.2248 82.8388 17.268C82.6236 17.3254 82.4084 17.3542 82.1789 17.3829C81.9494 17.4117 81.6911 17.4261 81.4186 17.4261C80.8591 17.4261 80.357 17.3254 79.898 17.1386Z" fill="#333D42"/>
<path fill-rule="evenodd" clip-rule="evenodd" d="M88.5048 18.4469V13.8762C88.7056 13.3588 88.9495 12.9707 89.2507 12.6976C89.552 12.4245 89.9249 12.2951 90.3696 12.2951C90.6135 12.2951 90.8144 12.3239 90.9578 12.367C91.0869 12.4101 91.1873 12.4245 91.2591 12.4245C91.3738 12.4245 91.4455 12.367 91.4886 12.252L91.6464 11.289C91.5029 11.2171 91.3595 11.1453 91.2017 11.1021C91.0295 11.059 90.8574 11.0303 90.6566 11.0303C90.1545 11.0303 89.7241 11.174 89.3655 11.4758C88.9925 11.7777 88.6912 12.2089 88.4474 12.7407L88.3613 11.5333C88.3326 11.3896 88.3039 11.3034 88.2465 11.2459C88.1892 11.1884 88.1031 11.1596 87.9596 11.1596H87.228V18.4469H88.5048Z" fill="#333D42"/>
<path fill-rule="evenodd" clip-rule="evenodd" d="M94.5873 11.3175C94.157 11.49 93.7983 11.7487 93.4971 12.0649C93.1958 12.3955 92.952 12.798 92.7942 13.2579C92.6364 13.7179 92.5503 14.2353 92.5503 14.7959C92.5503 15.3708 92.6364 15.8883 92.7942 16.3482C92.952 16.8082 93.1958 17.2106 93.4971 17.5268C93.7983 17.8574 94.157 18.1161 94.5873 18.2886C95.0177 18.4611 95.4911 18.5473 96.0219 18.5473C96.5526 18.5473 97.026 18.4611 97.4564 18.2886C97.8867 18.1161 98.2454 17.8574 98.5466 17.5268C98.8479 17.2106 99.0774 16.8082 99.2352 16.3482C99.393 15.8883 99.4791 15.3708 99.4791 14.7959C99.4791 14.2353 99.393 13.7179 99.2352 13.2579C99.0774 12.798 98.8479 12.3955 98.5466 12.0649C98.2454 11.7487 97.8867 11.49 97.4564 11.3175C97.026 11.145 96.5526 11.0444 96.0219 11.0444C95.4911 11.0444 95.0177 11.145 94.5873 11.3175ZM95.0751 17.3543C94.8025 17.2393 94.5873 17.0525 94.4008 16.8225C94.2287 16.5925 94.0852 16.3051 93.9992 15.9601C93.9131 15.6295 93.8701 15.2414 93.8701 14.8102C93.8701 14.379 93.9131 13.9909 93.9992 13.646C94.0852 13.301 94.2287 13.0136 94.4008 12.7836C94.5873 12.5392 94.8025 12.3668 95.0751 12.2374C95.3476 12.108 95.6632 12.0505 96.0219 12.0505C96.7391 12.0505 97.2699 12.2949 97.6285 12.7836C97.9872 13.2579 98.1593 13.9334 98.1593 14.8102C98.1593 15.6726 97.9872 16.3482 97.6285 16.8225C97.2699 17.3112 96.7391 17.5412 96.0219 17.5412C95.6632 17.5412 95.3476 17.4837 95.0751 17.3543Z" fill="#333D42"/>
<path fill-rule="evenodd" clip-rule="evenodd" d="M102.534 18.4467H103.495C103.639 18.4467 103.739 18.3604 103.797 18.2023L105.418 13.2723C105.461 13.1573 105.489 13.0423 105.518 12.9273C105.532 12.8123 105.561 12.6973 105.59 12.5967C105.604 12.6973 105.633 12.8123 105.662 12.9273C105.676 13.0423 105.705 13.1429 105.748 13.2579L107.354 18.2023C107.397 18.3604 107.483 18.4467 107.613 18.4467H108.631L110.984 11.1594H110.023C109.922 11.1594 109.85 11.1881 109.779 11.2313C109.707 11.2888 109.664 11.3462 109.65 11.4325L108.229 16.1182C108.186 16.2619 108.143 16.42 108.1 16.5925C108.057 16.765 108.029 16.9375 108.014 17.0956C107.971 16.9375 107.928 16.7794 107.885 16.6069C107.842 16.4488 107.799 16.2907 107.756 16.1182L106.25 11.4037C106.221 11.3319 106.178 11.26 106.121 11.2169C106.063 11.1738 105.977 11.145 105.891 11.145H105.332C105.246 11.145 105.159 11.1738 105.102 11.2169C105.045 11.26 105.002 11.3319 104.987 11.4037L103.452 16.1182C103.395 16.2907 103.338 16.4488 103.295 16.6213C103.252 16.7794 103.208 16.9375 103.165 17.0956C103.137 16.9375 103.108 16.7794 103.079 16.6213C103.051 16.4488 103.008 16.2907 102.979 16.1182L101.587 11.4325C101.559 11.3606 101.516 11.2888 101.444 11.2456C101.372 11.1881 101.286 11.1594 101.186 11.1594H100.182L102.534 18.4467Z" fill="#333D42"/>
<path fill-rule="evenodd" clip-rule="evenodd" d="M115.359 18.3748C115.66 18.2599 115.933 18.1018 116.148 17.9005L115.775 17.2825C115.718 17.1962 115.66 17.1531 115.603 17.1531C115.56 17.1531 115.517 17.1675 115.459 17.2106C115.416 17.2394 115.359 17.2825 115.287 17.3256C115.215 17.3687 115.129 17.4118 115.029 17.4406C114.929 17.4837 114.814 17.4981 114.685 17.4981C114.441 17.4981 114.254 17.4262 114.111 17.2681C113.953 17.1244 113.881 16.8944 113.881 16.5925V12.223H115.961V11.2888H113.881V8.77344H113.236C113.15 8.77344 113.092 8.80218 113.035 8.8453C112.978 8.88842 112.949 8.94592 112.949 9.01778L112.648 11.2744L111.457 11.4325V11.9356C111.457 12.0362 111.486 12.1081 111.543 12.1512C111.586 12.1943 111.658 12.223 111.73 12.223H112.605V16.6788C112.605 17.2825 112.762 17.7424 113.064 18.0586C113.379 18.3892 113.824 18.5473 114.398 18.5473C114.728 18.5473 115.043 18.4898 115.359 18.3748Z" fill="#333D42"/>
<path fill-rule="evenodd" clip-rule="evenodd" d="M118.889 18.4467V13.0854C119.161 12.7692 119.462 12.5249 119.792 12.338C120.122 12.1512 120.481 12.0649 120.854 12.0649C121.37 12.0649 121.758 12.223 122.001 12.5249C122.26 12.8267 122.389 13.2579 122.389 13.8041V18.4467H123.666V13.8041C123.666 13.3873 123.608 13.0136 123.508 12.683C123.393 12.338 123.235 12.0505 123.034 11.8062C122.834 11.5618 122.575 11.375 122.274 11.2456C121.973 11.1163 121.628 11.0444 121.227 11.0444C120.739 11.0444 120.294 11.145 119.921 11.3462C119.548 11.5475 119.204 11.8062 118.889 12.1368V7.85352H117.612V18.4467H118.889Z" fill="#333D42"/>
<path fill-rule="evenodd" clip-rule="evenodd" d="M78.2053 36.2697V30.0605H80.2567V29.1262H78.1623V28.465C78.1623 28.1488 78.191 27.8901 78.2627 27.6888C78.3344 27.4732 78.4348 27.3008 78.5639 27.1714C78.693 27.042 78.8365 26.9558 79.023 26.8983C79.1951 26.8408 79.396 26.8121 79.6255 26.8121H79.8407C79.9841 26.8121 80.0845 26.7977 80.1706 26.7833C80.2423 26.769 80.2854 26.7115 80.2854 26.6108L80.3141 25.964C80.0415 25.8634 79.7402 25.8203 79.4103 25.8203C79.023 25.8203 78.6787 25.8778 78.3774 25.9928C78.0762 26.1078 77.8036 26.2803 77.5885 26.4959C77.3733 26.7258 77.2011 26.9989 77.0864 27.3151C76.9716 27.6314 76.9142 28.0051 76.9142 28.4219V29.1262H75.7666V29.658C75.7666 29.7586 75.7953 29.8305 75.867 29.8736C75.9244 29.9311 76.0105 29.9598 76.1109 29.9886L76.9142 30.0892V36.2697H78.2053Z" fill="#333D42"/>
<path fill-rule="evenodd" clip-rule="evenodd" d="M82.8094 36.2697V31.699C83.0103 31.1815 83.2542 30.7934 83.5554 30.5203C83.8567 30.2472 84.2296 30.1179 84.6743 30.1179C84.9182 30.1179 85.119 30.1466 85.2625 30.1898C85.3916 30.2329 85.492 30.2472 85.5637 30.2472C85.6785 30.2472 85.7502 30.1898 85.7933 30.0748L85.9511 29.1117C85.8076 29.0399 85.6642 28.968 85.5064 28.9249C85.3342 28.8818 85.1621 28.853 84.9612 28.853C84.4592 28.853 84.0288 28.9968 83.6702 29.2986C83.2972 29.6004 82.9959 30.0316 82.7521 30.5635L82.666 29.3561C82.6373 29.2124 82.6086 29.1261 82.5512 29.0686C82.4938 29.0111 82.4078 28.9824 82.2643 28.9824H81.5327V36.2697H82.8094Z" fill="#333D42"/>
<path fill-rule="evenodd" clip-rule="evenodd" d="M88.8925 29.1408C88.4621 29.3133 88.1035 29.572 87.8023 29.8882C87.501 30.2188 87.2571 30.6212 87.0993 31.0812C86.9415 31.5411 86.8555 32.0586 86.8555 32.6191C86.8555 33.1941 86.9415 33.7115 87.0993 34.1714C87.2571 34.6314 87.501 35.0339 87.8023 35.3501C88.1035 35.6807 88.4621 35.9394 88.8925 36.1119C89.3229 36.2843 89.7963 36.3706 90.327 36.3706C90.8578 36.3706 91.3312 36.2843 91.7616 36.1119C92.1919 35.9394 92.5505 35.6807 92.8518 35.3501C93.1531 35.0339 93.3826 34.6314 93.5404 34.1714C93.6982 33.7115 93.7842 33.1941 93.7842 32.6191C93.7842 32.0586 93.6982 31.5411 93.5404 31.0812C93.3826 30.6212 93.1531 30.2188 92.8518 29.8882C92.5505 29.572 92.1919 29.3133 91.7616 29.1408C91.3312 28.9683 90.8578 28.8677 90.327 28.8677C89.7963 28.8677 89.3229 28.9683 88.8925 29.1408ZM89.3802 35.1776C89.1077 35.0626 88.8925 34.8758 88.706 34.6458C88.5339 34.4158 88.3904 34.1283 88.3043 33.7834C88.2183 33.4528 88.1752 33.0647 88.1752 32.6335C88.1752 32.2023 88.2183 31.8142 88.3043 31.4693C88.3904 31.1243 88.5339 30.8368 88.706 30.6069C88.8925 30.3625 89.1077 30.19 89.3802 30.0607C89.6528 29.9313 89.9684 29.8738 90.327 29.8738C91.0443 29.8738 91.5751 30.1182 91.9337 30.6069C92.2923 31.0812 92.4645 31.7567 92.4645 32.6335C92.4645 33.4959 92.2923 34.1715 91.9337 34.6458C91.5751 35.1345 91.0443 35.3645 90.327 35.3645C89.9684 35.3645 89.6528 35.307 89.3802 35.1776Z" fill="#333D42"/>
<path fill-rule="evenodd" clip-rule="evenodd" d="M96.7108 36.27V30.8368C96.9403 30.5494 97.1842 30.3194 97.4568 30.1469C97.7293 29.9744 98.0162 29.8882 98.3318 29.8882C98.7765 29.8882 99.1208 30.0319 99.3647 30.3194C99.5942 30.6069 99.709 31.0381 99.709 31.6274V36.27H100.986V31.6274C100.986 31.3399 101.029 31.0955 101.115 30.8656C101.201 30.65 101.316 30.4775 101.459 30.3338C101.603 30.19 101.76 30.075 101.947 30.0032C102.133 29.9313 102.334 29.8882 102.549 29.8882C103.023 29.8882 103.381 30.0319 103.64 30.3338C103.883 30.6212 104.013 31.0524 104.013 31.6274V36.27H105.289V31.6274C105.289 31.1818 105.232 30.7937 105.117 30.4487C105.002 30.1182 104.845 29.8163 104.644 29.5863C104.429 29.3564 104.185 29.1695 103.883 29.0545C103.582 28.9252 103.238 28.8677 102.865 28.8677C102.621 28.8677 102.377 28.8964 102.148 28.9539C101.918 29.0114 101.703 29.0976 101.502 29.227C101.287 29.3564 101.1 29.5145 100.943 29.7013C100.771 29.8882 100.641 30.1182 100.541 30.3913C100.412 29.9169 100.182 29.5576 99.8811 29.2845C99.5799 29.0114 99.1782 28.8677 98.6905 28.8677C98.2458 28.8677 97.8584 28.9683 97.5285 29.1839C97.1986 29.3995 96.8973 29.6726 96.6391 30.0032L96.5387 29.2558C96.4956 29.0689 96.3809 28.9827 96.1944 28.9827H95.4341V36.27H96.7108Z" fill="#333D42"/>
<path fill-rule="evenodd" clip-rule="evenodd" d="M78.3632 43.7871H76.9717V54.0928H78.3632V49.3783H78.9944C79.1091 49.3783 79.1952 49.3783 79.2813 49.3927C79.353 49.4071 79.4247 49.4215 79.4821 49.4502C79.5395 49.479 79.5969 49.5221 79.6399 49.5652C79.6829 49.6083 79.7403 49.6514 79.7977 49.7089L83.341 53.791C83.384 53.8341 83.4127 53.8772 83.4558 53.9203C83.4988 53.9635 83.5418 53.9922 83.5849 54.0066C83.6279 54.0353 83.6853 54.0497 83.7427 54.0641C83.8 54.0784 83.8861 54.0928 83.9722 54.0928H85.1772L81.0888 49.2059C80.974 49.0765 80.8736 48.9759 80.7732 48.8897C80.6728 48.8034 80.558 48.7315 80.4289 48.6884C80.5293 48.6453 80.6154 48.5878 80.7015 48.5016C80.7875 48.4297 80.8879 48.3435 80.9884 48.2285L84.9046 43.7871H83.7283C83.5705 43.7871 83.4414 43.8159 83.341 43.859C83.2406 43.9165 83.1402 44.0027 83.0397 44.1177L79.6256 47.9985C79.5251 48.1135 79.4247 48.1854 79.31 48.2285C79.2095 48.2716 79.0661 48.3003 78.8796 48.3003H78.3632V43.7871Z" fill="#333D42"/>
<path fill-rule="evenodd" clip-rule="evenodd" d="M87.7445 54.0927V48.7314C88.0171 48.4152 88.3183 48.1709 88.6483 47.984C88.9782 47.7972 89.3368 47.7109 89.7098 47.7109C90.2262 47.7109 90.6136 47.869 90.8574 48.1709C91.1156 48.4727 91.2448 48.9039 91.2448 49.4501V54.0927H92.5215V49.4501C92.5215 49.0333 92.4641 48.6596 92.3637 48.329C92.2489 47.984 92.0911 47.6966 91.8903 47.4522C91.6895 47.2079 91.4312 47.021 91.13 46.8917C90.8287 46.7623 90.4845 46.6904 90.0828 46.6904C89.5664 46.6904 89.1217 46.8054 88.7343 47.021C88.347 47.2366 87.9884 47.5097 87.6728 47.869L87.5724 47.0785C87.5293 46.8917 87.4146 46.8054 87.2281 46.8054H86.4678V54.0927H87.7445Z" fill="#333D42"/>
<path fill-rule="evenodd" clip-rule="evenodd" d="M96.0214 46.9635C95.591 47.136 95.2324 47.3947 94.9312 47.7109C94.6299 48.0415 94.386 48.444 94.2282 48.9039C94.0704 49.3639 93.9844 49.8813 93.9844 50.4419C93.9844 51.0168 94.0704 51.5343 94.2282 51.9942C94.386 52.4541 94.6299 52.8566 94.9312 53.1728C95.2324 53.5034 95.591 53.7621 96.0214 53.9346C96.4518 54.1071 96.9252 54.1933 97.4559 54.1933C97.9867 54.1933 98.4601 54.1071 98.8905 53.9346C99.3208 53.7621 99.6795 53.5034 99.9807 53.1728C100.282 52.8566 100.511 52.4541 100.669 51.9942C100.827 51.5343 100.913 51.0168 100.913 50.4419C100.913 49.8813 100.827 49.3639 100.669 48.9039C100.511 48.444 100.282 48.0415 99.9807 47.7109C99.6795 47.3947 99.3208 47.136 98.8905 46.9635C98.4601 46.791 97.9867 46.6904 97.4559 46.6904C96.9252 46.6904 96.4518 46.791 96.0214 46.9635ZM96.5092 53.0004C96.2366 52.8854 96.0214 52.6986 95.8349 52.4686C95.6628 52.2386 95.5193 51.9511 95.4333 51.6062C95.3472 51.2756 95.3041 50.8875 95.3041 50.4563C95.3041 50.0251 95.3472 49.637 95.4333 49.2921C95.5193 48.9471 95.6628 48.6596 95.8349 48.4297C96.0214 48.1853 96.2366 48.0128 96.5092 47.8835C96.7817 47.7541 97.0973 47.6966 97.4559 47.6966C98.1732 47.6966 98.704 47.941 99.0626 48.4297C99.4212 48.904 99.5934 49.5795 99.5934 50.4563C99.5934 51.3187 99.4212 51.9943 99.0626 52.4686C98.704 52.9573 98.1732 53.1873 97.4559 53.1873C97.0973 53.1873 96.7817 53.1298 96.5092 53.0004Z" fill="#333D42"/>
<path fill-rule="evenodd" clip-rule="evenodd" d="M103.969 54.0927H104.93C105.073 54.0927 105.174 54.0064 105.231 53.8483L106.852 48.9183C106.895 48.8033 106.924 48.6883 106.953 48.5733C106.967 48.4583 106.996 48.3433 107.024 48.2427C107.039 48.3433 107.067 48.4583 107.096 48.5733C107.11 48.6883 107.139 48.7889 107.182 48.9039L108.789 53.8483C108.832 54.0064 108.918 54.0927 109.047 54.0927H110.066L112.418 46.8054H111.457C111.357 46.8054 111.285 46.8341 111.213 46.8773C111.141 46.9347 111.098 46.9922 111.084 47.0785L109.664 51.7642C109.621 51.9079 109.578 52.066 109.535 52.2385C109.492 52.411 109.463 52.5835 109.449 52.7416C109.406 52.5835 109.363 52.4254 109.32 52.2529C109.277 52.0948 109.234 51.9367 109.191 51.7642L107.684 47.0497C107.656 46.9779 107.613 46.906 107.555 46.8629C107.498 46.8198 107.412 46.791 107.326 46.791H106.766C106.68 46.791 106.594 46.8198 106.537 46.8629C106.479 46.906 106.436 46.9779 106.422 47.0497L104.887 51.7642C104.83 51.9367 104.772 52.0948 104.729 52.2673C104.686 52.4254 104.643 52.5835 104.6 52.7416C104.571 52.5835 104.543 52.4254 104.514 52.2673C104.485 52.0948 104.442 51.9367 104.414 51.7642L103.022 47.0785C102.993 47.0066 102.95 46.9347 102.879 46.8916C102.807 46.8341 102.721 46.8054 102.62 46.8054H101.616L103.969 54.0927Z" fill="#333D42"/>
<path fill-rule="evenodd" clip-rule="evenodd" d="M113.767 54.0927H115.043V43.4995H113.767V54.0927Z" fill="#333D42"/>
<path fill-rule="evenodd" clip-rule="evenodd" d="M118.831 46.9635C118.4 47.1504 118.042 47.4091 117.755 47.7253C117.468 48.0559 117.238 48.4296 117.081 48.8752C116.923 49.3208 116.851 49.7951 116.851 50.2981C116.851 50.9306 116.937 51.4911 117.109 51.9655C117.281 52.4541 117.525 52.8566 117.827 53.1872C118.142 53.5178 118.501 53.7621 118.931 53.9346C119.347 54.1071 119.821 54.1933 120.323 54.1933C120.581 54.1933 120.839 54.1646 121.112 54.1215C121.384 54.0783 121.642 54.0065 121.886 53.9202C122.144 53.834 122.374 53.719 122.604 53.5753C122.819 53.4315 123.005 53.2734 123.163 53.0722L122.804 52.6123C122.747 52.526 122.661 52.4829 122.561 52.4829C122.474 52.4829 122.388 52.526 122.274 52.5979C122.159 52.6698 122.015 52.756 121.858 52.8422C121.685 52.9285 121.485 53.0003 121.255 53.0866C121.026 53.1584 120.739 53.1872 120.423 53.1872C120.079 53.1872 119.763 53.1441 119.491 53.0291C119.218 52.9141 118.974 52.7416 118.773 52.5116C118.573 52.2817 118.415 51.9942 118.3 51.6636C118.185 51.3187 118.128 50.9162 118.113 50.4563H122.948C123.063 50.4563 123.149 50.4275 123.192 50.3556C123.235 50.2838 123.263 50.1544 123.263 49.9532C123.263 49.4357 123.177 48.9758 123.034 48.559C122.876 48.1565 122.675 47.8259 122.403 47.5385C122.13 47.2654 121.815 47.0498 121.456 46.906C121.083 46.7623 120.681 46.6904 120.251 46.6904C119.72 46.6904 119.247 46.7767 118.831 46.9635ZM121.054 47.7829C121.284 47.8835 121.47 48.0272 121.628 48.1997C121.786 48.3866 121.901 48.5878 121.987 48.8321C122.073 49.0909 122.116 49.3496 122.116 49.6514H118.156C118.243 49.019 118.458 48.5303 118.816 48.171C119.175 47.8116 119.663 47.6391 120.28 47.6391C120.566 47.6391 120.825 47.6823 121.054 47.7829Z" fill="#333D42"/>
<path fill-rule="evenodd" clip-rule="evenodd" d="M130.838 54.0927V43.4995H129.561V47.5384C129.303 47.2653 129.03 47.0497 128.715 46.906C128.399 46.7479 128.012 46.676 127.567 46.676C127.079 46.676 126.634 46.7766 126.247 46.9635C125.86 47.1647 125.53 47.4234 125.257 47.7684C124.985 48.1134 124.784 48.5158 124.64 48.9758C124.497 49.4357 124.425 49.9388 124.425 50.4706C124.425 51.0743 124.497 51.6061 124.626 52.0804C124.755 52.5404 124.927 52.9284 125.171 53.2447C125.415 53.5609 125.702 53.7908 126.046 53.9489C126.376 54.1071 126.764 54.1933 127.18 54.1933C127.696 54.1933 128.141 54.0783 128.542 53.8483C128.944 53.6184 129.303 53.3165 129.618 52.9428L129.733 53.8196C129.776 54.0064 129.891 54.0927 130.077 54.0927H130.838ZM126.807 53.0003C126.577 52.8997 126.391 52.7416 126.233 52.526C126.075 52.3104 125.946 52.0373 125.874 51.6923C125.788 51.3617 125.745 50.9449 125.745 50.4706C125.745 49.5794 125.932 48.8895 126.29 48.4008C126.649 47.9121 127.18 47.6821 127.854 47.6821C128.198 47.6821 128.499 47.7396 128.786 47.869C129.059 47.9983 129.317 48.2139 129.561 48.5302V52.0516C129.288 52.411 129.001 52.6841 128.686 52.8709C128.37 53.0578 128.012 53.1584 127.596 53.1584C127.294 53.1584 127.036 53.1009 126.807 53.0003Z" fill="#333D42"/>
<path fill-rule="evenodd" clip-rule="evenodd" d="M134.381 46.8629C134.051 46.9635 133.764 47.1216 133.52 47.3229C133.276 47.5385 133.075 47.7828 132.946 48.0703C132.803 48.3577 132.745 48.6883 132.745 49.0333C132.745 49.4932 132.846 49.8813 133.046 50.2119C133.247 50.5425 133.534 50.8156 133.893 51.0168C133.735 51.0887 133.606 51.1749 133.491 51.2755C133.376 51.3761 133.276 51.4911 133.19 51.5917C133.118 51.7067 133.061 51.8217 133.018 51.9223C132.975 52.0373 132.96 52.1523 132.96 52.2529C132.96 52.526 133.018 52.7416 133.147 52.8997C133.262 53.0578 133.434 53.1872 133.635 53.2734C133.233 53.4315 132.932 53.6328 132.702 53.8771C132.473 54.1358 132.358 54.4377 132.358 54.797C132.358 55.0557 132.43 55.2857 132.559 55.53C132.688 55.76 132.889 55.9613 133.147 56.1337C133.405 56.3206 133.735 56.4643 134.137 56.5649C134.538 56.6655 135.012 56.723 135.543 56.723C136.073 56.723 136.547 56.6512 136.963 56.5218C137.379 56.3781 137.737 56.1912 138.039 55.9613C138.326 55.7313 138.541 55.4726 138.699 55.1707C138.856 54.8832 138.942 54.567 138.942 54.2508C138.942 53.9202 138.871 53.6471 138.727 53.4315C138.584 53.2159 138.412 53.0435 138.182 52.9285C137.953 52.7991 137.68 52.7129 137.393 52.6697C137.106 52.6123 136.805 52.5835 136.504 52.5835C136.202 52.5835 135.901 52.5835 135.614 52.5835C135.313 52.5835 135.055 52.5691 134.825 52.526C134.596 52.4829 134.409 52.4254 134.28 52.3248C134.137 52.2385 134.065 52.0948 134.065 51.9223C134.065 51.8073 134.108 51.7067 134.18 51.5917C134.266 51.4768 134.381 51.3761 134.538 51.2755C134.84 51.3474 135.155 51.3905 135.5 51.3905C135.887 51.3905 136.26 51.333 136.59 51.218C136.92 51.1174 137.207 50.9593 137.45 50.7437C137.694 50.5425 137.881 50.2981 138.01 50.0107C138.153 49.7088 138.225 49.3926 138.225 49.0333C138.225 48.6596 138.139 48.3146 137.981 47.9984L138.799 47.8834C139 47.8403 139.1 47.7397 139.1 47.5816V47.0929H137.135C136.905 46.9635 136.647 46.8629 136.375 46.791C136.102 46.7192 135.815 46.6904 135.5 46.6904C135.098 46.6904 134.725 46.7479 134.381 46.8629ZM137.608 54.9984C137.508 55.1708 137.364 55.3002 137.178 55.4296C136.991 55.5445 136.762 55.6308 136.489 55.6883C136.217 55.7601 135.901 55.7889 135.557 55.7889C135.198 55.7889 134.897 55.7601 134.639 55.7027C134.381 55.6452 134.165 55.5589 133.993 55.4583C133.821 55.3577 133.692 55.2283 133.606 55.0846C133.52 54.9409 133.477 54.7971 133.477 54.6246C133.477 54.3659 133.563 54.1503 133.735 53.9635C133.907 53.7766 134.122 53.6185 134.395 53.4892C134.624 53.5466 134.883 53.5898 135.141 53.5898C135.399 53.5898 135.643 53.5898 135.901 53.5898C136.145 53.5898 136.375 53.6041 136.604 53.6329C136.834 53.6616 137.034 53.7048 137.207 53.7622C137.379 53.8197 137.508 53.906 137.608 54.021C137.709 54.136 137.766 54.2797 137.766 54.4665C137.766 54.6678 137.709 54.8402 137.608 54.9984ZM134.825 50.4276C134.624 50.3557 134.452 50.2551 134.323 50.1257C134.194 49.9964 134.094 49.8527 134.022 49.6658C133.95 49.4933 133.922 49.2921 133.922 49.0765C133.922 48.6309 134.051 48.2716 134.323 48.0129C134.596 47.7398 134.983 47.6104 135.5 47.6104C136.016 47.6104 136.403 47.7398 136.676 48.0129C136.948 48.2716 137.078 48.6309 137.078 49.0765C137.078 49.2921 137.049 49.4933 136.977 49.6658C136.905 49.8527 136.805 49.9964 136.676 50.1257C136.547 50.2551 136.375 50.3557 136.174 50.4276C135.973 50.4995 135.758 50.5426 135.5 50.5426C135.241 50.5426 135.012 50.4995 134.825 50.4276Z" fill="#333D42"/>
<path fill-rule="evenodd" clip-rule="evenodd" d="M141.912 46.9635C141.481 47.1504 141.123 47.4091 140.836 47.7253C140.549 48.0559 140.319 48.4296 140.162 48.8752C140.004 49.3208 139.932 49.7951 139.932 50.2981C139.932 50.9306 140.018 51.4911 140.19 51.9655C140.362 52.4541 140.606 52.8566 140.908 53.1872C141.223 53.5178 141.582 53.7621 142.012 53.9346C142.428 54.1071 142.902 54.1933 143.404 54.1933C143.662 54.1933 143.92 54.1646 144.193 54.1215C144.465 54.0783 144.723 54.0065 144.967 53.9202C145.226 53.834 145.455 53.719 145.685 53.5753C145.9 53.4315 146.086 53.2734 146.244 53.0722L145.885 52.6123C145.828 52.526 145.742 52.4829 145.642 52.4829C145.555 52.4829 145.469 52.526 145.355 52.5979C145.24 52.6698 145.096 52.756 144.939 52.8422C144.766 52.9285 144.566 53.0003 144.336 53.0866C144.107 53.1584 143.82 53.1872 143.504 53.1872C143.16 53.1872 142.844 53.1441 142.572 53.0291C142.299 52.9141 142.055 52.7416 141.854 52.5116C141.654 52.2817 141.496 51.9942 141.381 51.6636C141.266 51.3187 141.209 50.9162 141.195 50.4563H146.029C146.144 50.4563 146.23 50.4275 146.273 50.3556C146.316 50.2838 146.344 50.1544 146.344 49.9532C146.344 49.4357 146.258 48.9758 146.115 48.559C145.957 48.1565 145.756 47.8259 145.484 47.5385C145.211 47.2654 144.896 47.0498 144.537 46.906C144.164 46.7623 143.762 46.6904 143.332 46.6904C142.801 46.6904 142.328 46.7767 141.912 46.9635ZM144.135 47.7829C144.365 47.8835 144.551 48.0272 144.709 48.1997C144.867 48.3866 144.982 48.5878 145.068 48.8321C145.154 49.0909 145.197 49.3496 145.197 49.6514H141.238C141.324 49.019 141.539 48.5303 141.897 48.171C142.256 47.8116 142.744 47.6391 143.361 47.6391C143.648 47.6391 143.906 47.6823 144.135 47.7829Z" fill="#333D42"/>
</svg>