<svg xmlns="http://www.w3.org/2000/svg" height="800" width="1200" viewBox="-2.817105 -4.296775 24.41491 25.78065"><g fill-rule="evenodd"><path d="M16.479 8.0008a1.577 1.577 0 01-.5842-3.0414 8.4632 8.4632 0 00-.3368-.5993A2.3585 2.3585 0 0112.8278 1.63 8.368 8.368 0 008.4066.3739C3.7637.3742 0 4.1379 0 8.781c0 4.643 3.7637 8.4061 8.4066 8.4061 4.6434 0 8.4071-3.7632 8.4071-8.406 0-.2731-.0145-.5425-.0396-.8081a1.6113 1.6113 0 01-.295.0278" fill="#d13339"/><path d="M18.7807 4.1326a.8098.8098 0 10-1.6195-.0006.8096.8096 0 001.6192.0006" fill="#9ab1c5"/><path d="M17.1646 2.0363a2.0135 2.0135 0 10-4.0267 0 2.0135 2.0135 0 004.0267 0" fill="#283846"/><path d="M17.7064 6.4239a1.2269 1.2269 0 10-2.4534 0 1.2267 1.2267 0 102.4534 0" fill="#5d717f"/><path d="M11.7986 5.26c-.08-.1982-.2027-.3972-.3273-.5062-.159-.1394-.3509-.2074-.5668-.2074-.5432 0-.9133.3995-.9133.8257 0 .1728.05.3623.1709.658.2937.716.7313 1.7812 1.3457 3.2756H9.5335c-.5575 0-.6731.1045-.8808.5625-.2019.4469-1.0113 2.3633-1.1449 2.681h1.8659l.6781-1.725h2.0799s.6019 1.4573.6048 1.4652c.094.2207.1516.2598.4374.2598h1.6123S11.8891 5.4841 11.7986 5.26" fill="#fff"/><path d="M6.9948 8.167c-.2437.2031-.5964.29-1.1364.29h-.8689V6.1965h.8689c.5398 0 .8927.0865 1.1364.2892.2191.1825.3413.4598.3413.838 0 .3783-.1222.6606-.3413.8431m1.4203-2.78c-.5281-.5093-1.3293-.785-2.4114-.785H3.1152v7.9473h1.874V10.041h.8838c1.0911 0 1.8806-.2768 2.441-.7948.5141-.4755.8324-1.162.8324-2.0093v-.0212c0-.7644-.2725-1.3853-.7313-1.8288" fill="#fff"/></g></svg>